<svg width="461" height="351" viewBox="0 0 461 351" fill="none" xmlns="http://www.w3.org/2000/svg">
<g opacity="0.3">
<path d="M0 331.563L56.947 331.293L113.894 331.192L227.777 331.012L341.66 331.192L398.607 331.293L455.554 331.563L398.607 331.844L341.66 331.945L227.777 332.125L113.894 331.945L56.947 331.844L0 331.563Z" fill="#263238"/>
<path d="M127.26 76.6407C120.33 61.1044 105.289 50.908 90.8327 54.7752C59.8167 63.0605 64.0354 109.917 41.7606 140.214C14.8508 176.818 14.5246 207.587 37.9469 212.05C64.1817 217.041 88.6952 188.925 85.9053 130.04C84.1615 93.2113 91.9352 80.1707 101.914 77.3377C109.249 75.258 117.439 84.0829 117.439 84.0829L127.26 76.6407Z" fill="#263238"/>
<path d="M85.4657 109.658C85.3195 115.515 85.837 121.361 86.1407 127.196C86.4445 133.03 86.8832 138.842 87.0632 144.654C87.2773 150.455 87.1985 156.264 86.827 162.057C86.511 167.818 85.6101 173.532 84.1382 179.111C82.7601 184.676 80.3233 189.924 76.9608 194.568C73.3821 199.139 69.0394 203.056 64.1246 206.148C59.167 209.298 53.5513 211.267 47.711 211.904C44.7689 212.228 41.7973 212.175 38.8686 211.746C37.3997 211.54 35.9481 211.224 34.5261 210.802C33.0841 210.438 31.7014 209.87 30.4199 209.116C32.9331 210.785 35.7566 211.932 38.7224 212.488C41.704 213.126 44.7546 213.383 47.801 213.253C50.8537 213.087 53.8754 212.554 56.801 211.667C59.7323 210.754 62.5513 209.513 65.2046 207.969C67.8491 206.443 70.3427 204.67 72.6521 202.674L74.3396 201.145L75.9708 199.56C77.0632 198.483 78.0817 197.334 79.0195 196.12C82.6366 191.244 85.2693 185.711 86.7707 179.83C89.8307 168.217 89.9094 156.222 89.1669 144.587C88.7957 138.73 88.1545 132.907 87.4457 127.094C86.737 121.282 85.9382 115.482 85.4657 109.658Z" fill="#263238"/>
<path d="M120.465 67.6472C118.011 64.4076 115.157 61.4915 111.971 58.9684C108.822 56.5322 105.161 54.8431 101.263 54.029C97.3647 53.215 93.3325 53.2971 89.471 54.2693C87.5417 54.7679 85.6596 55.4336 83.8461 56.2591C82.0514 57.045 80.3403 58.0092 78.7386 59.137C75.6378 61.5205 72.9735 64.4226 70.8637 67.7146C68.7543 71.0878 67.0012 74.6707 65.6325 78.4057C62.7412 85.8928 60.7388 93.8071 58.3988 101.643C56.1707 109.576 53.3349 117.326 49.9163 124.824C46.2061 132.171 41.9295 139.218 37.1252 145.902C32.4902 152.647 27.6753 159.201 23.9966 166.396C22.0626 169.944 20.5846 173.721 19.5978 177.638L18.9453 180.595C18.8104 181.595 18.7428 182.607 18.6416 183.608L18.5291 185.069V186.598L18.5966 189.645C17.2579 181.55 19.0803 173.085 22.5903 165.654C26.1003 158.223 30.7015 151.355 35.0777 144.486C39.4539 137.617 43.8189 130.782 47.1826 123.475C50.4548 116.085 53.1772 108.465 55.3275 100.676C57.7125 92.9078 59.7263 84.9373 62.82 77.259C64.3288 73.3576 66.2404 69.6238 68.5237 66.1183C70.8917 62.5943 73.8984 59.544 77.3886 57.1247C79.1593 55.9619 81.044 54.9825 83.0136 54.2018C84.9539 53.3867 86.9647 52.7508 89.021 52.3019C93.1321 51.3659 97.4071 51.4222 101.492 52.4662C105.577 53.5102 109.354 55.5118 112.511 58.3051C115.593 61.0252 118.272 64.1709 120.465 67.6472Z" fill="#263238"/>
<path d="M133.278 79.5299C133.278 76.5733 131.028 72.7848 129.15 72.3463C127.271 71.9079 113.186 78.2821 112.061 81.9469C110.936 85.6118 117.303 88.6921 117.303 88.6921L133.278 79.5299Z" fill="#FF725E"/>
<path d="M119.352 196.232C127.496 244.966 139.68 283.863 152.573 293.913C162.979 302.03 177.997 308.348 193.578 313.182C210.253 318.137 227.236 321.99 244.417 324.716C249.704 325.593 254.114 326.223 257.242 326.706C264.982 327.83 281.913 277.523 276.907 270.811C275.782 269.271 270.719 267.754 263.598 266.247C239.624 261.244 189.438 257.321 186.817 254.376C184.196 251.43 159.975 215.906 140.501 188.565C126.867 169.432 114.84 169.207 119.352 196.232Z" fill="#F7A9A0"/>
<path d="M242.053 320.253C242.987 320.782 256.239 327.864 264.496 330.652C270.661 332.743 288.571 338.274 291.496 331.72C293.532 327.223 283.385 322.727 276.275 319.421C272.54 317.668 268.018 313.463 269.244 311.069C271.404 306.875 281.034 311.608 287.322 315.644C299.484 323.446 315.537 337.24 323.446 331.248C326.427 329 323.277 324.503 318.563 320.006C326.292 325.335 334.583 329.798 338.003 327.414C339.961 326.054 340.141 324.042 339.185 321.793C341.603 322.704 343.775 322.648 345.361 321.108C348.061 318.522 346.981 314.486 344.337 310.27C344.825 310.238 345.299 310.091 345.719 309.841C346.139 309.591 346.495 309.245 346.756 308.832C352.594 300.749 326.281 275.6 316.91 272.936C289.347 265.067 259.603 266.191 259.603 266.191C248.319 274.397 242.03 320.231 242.053 320.253Z" fill="#F7A9A0"/>
<path d="M284.163 296.117C290.767 297.398 297.006 300.124 302.433 304.099C308.733 308.843 313.626 315.172 319.409 320.478C319.566 320.624 319.33 320.86 319.172 320.714C316.472 317.982 313.469 315.509 310.645 312.845C307.821 310.181 305.211 307.617 302.286 305.245C297.004 300.891 290.798 297.796 284.14 296.196C284.028 296.218 284.095 296.106 284.163 296.117Z" fill="#263238"/>
<path d="M289.888 284.538C297.111 286.865 304.513 289.225 311.173 292.98C318.441 297.095 323.987 303.536 329.443 309.731C332.713 313.478 335.904 317.27 339.017 321.108C339.152 321.265 338.927 321.501 338.792 321.344C333.257 314.943 327.534 308.715 321.624 302.66C316.186 297.017 309.687 292.501 302.499 289.372C298.382 287.584 294.141 286.123 289.9 284.672C289.891 284.673 289.882 284.672 289.873 284.67C289.865 284.667 289.857 284.662 289.85 284.657C289.843 284.651 289.838 284.644 289.834 284.636C289.83 284.628 289.827 284.62 289.826 284.611C289.826 284.602 289.827 284.593 289.829 284.584C289.832 284.576 289.836 284.568 289.842 284.561C289.848 284.555 289.855 284.549 289.863 284.545C289.871 284.541 289.879 284.538 289.888 284.538Z" fill="#263238"/>
<path d="M298.169 274.555C305.211 276.331 311.365 277.86 317.496 281.941C325.607 287.359 333.246 296.207 335.969 299.354C338.939 302.817 341.796 306.381 344.597 309.978C344.71 310.124 344.451 310.327 344.338 310.18C337.916 302.264 330.987 294.773 323.594 287.753C320.124 284.349 316.147 281.505 311.804 279.321C307.394 277.364 302.825 275.788 298.146 274.611C298.146 274.611 298.135 274.555 298.169 274.555Z" fill="#263238"/>
<path d="M127.101 247.26L169.513 222.269C169.513 222.269 151.412 193.04 135.943 179.246C120.475 165.452 114.231 176.278 116.582 196.322C118.934 216.367 127.101 247.26 127.101 247.26Z" fill="#FF725E"/>
<path d="M141.019 234.545C140.753 236.231 140.245 237.871 139.511 239.413C139.387 239.66 139.275 239.918 139.151 240.166L137.408 241.189C137.666 240.402 137.981 239.626 138.319 238.862C139.007 237.301 139.916 235.847 141.019 234.545ZM123.75 212.207C122.209 211.469 120.568 210.961 118.879 210.701C121.522 212.884 124.691 214.337 128.07 214.916C126.765 213.815 125.31 212.903 123.75 212.207ZM138.296 187.475C138.867 189.08 139.666 190.595 140.67 191.972C140.349 188.559 139.134 185.29 137.149 182.495C137.294 184.208 137.68 185.892 138.296 187.497V187.475ZM157.792 207.598C156.382 207.788 154.997 208.135 153.664 208.632C152.058 209.21 150.543 210.012 149.164 211.016C150.87 210.879 152.548 210.501 154.147 209.891C155.475 209.409 156.746 208.783 157.939 208.025C157.904 207.886 157.855 207.75 157.792 207.62V207.598Z" fill="white"/>
<path d="M162.832 215.917C156.082 219.391 137.891 229.407 126.99 237.468C126.923 237.468 127.091 237.794 127.159 237.76C137.284 232.465 156.622 220.414 163.08 216.344C163.204 216.265 162.967 215.849 162.832 215.917Z" fill="#263238"/>
<path d="M166.027 224.337L127.113 247.259C127.113 247.259 118.935 216.378 116.584 196.322C115.076 183.383 117.135 174.288 122.951 173.175L166.027 224.337Z" fill="#263238"/>
<path d="M168.074 331.529H27.8555C27.8555 331.529 58.309 213.995 86.5012 180.887C87.1312 180.123 87.7837 179.414 88.4362 178.74C88.5712 178.583 88.6837 178.47 88.8187 178.335C91.0001 176.005 93.541 174.039 96.3449 172.512C96.8399 172.242 97.3349 171.995 97.8524 171.77C108.709 166.778 120.172 170.916 128.452 177.998C131.073 180.246 160.796 218.885 163.428 233.612C165.678 246.619 156.903 260.592 156.903 260.592L168.074 331.529Z" fill="#FF725E"/>
<path d="M106.122 188.161C105.852 189.851 105.341 191.494 104.603 193.04C103.915 194.603 103.002 196.058 101.892 197.357C102.16 195.669 102.672 194.029 103.411 192.489C104.103 190.924 105.016 189.466 106.122 188.161ZM85.0171 253.948C84.2883 255.492 83.7808 257.131 83.5096 258.816C85.694 256.175 87.1484 253.009 87.7284 249.632C86.6261 250.936 85.7134 252.389 85.0171 253.948ZM67.6923 322.603C66.9518 324.146 66.4438 325.79 66.1848 327.482C68.3551 324.828 69.8077 321.661 70.4035 318.286C69.3012 319.59 68.3885 321.044 67.6923 322.603ZM138.319 238.862C137.582 240.407 137.07 242.05 136.8 243.741C137.913 242.44 138.827 240.981 139.512 239.413C140.246 237.871 140.753 236.231 141.019 234.545C139.917 235.847 139.007 237.301 138.319 238.862ZM160.538 283.717C159.819 285.243 159.32 286.863 159.053 288.529C159.751 287.724 160.366 286.85 160.886 285.92L160.538 283.717ZM107.134 315.61C106.406 317.158 105.898 318.8 105.627 320.489C106.74 319.188 107.653 317.73 108.338 316.161C109.067 314.617 109.575 312.979 109.846 311.293C108.743 312.598 107.831 314.051 107.134 315.61ZM123.751 212.185C122.21 211.446 120.568 210.939 118.879 210.678C121.522 212.861 124.691 214.314 128.071 214.894C126.764 213.8 125.309 212.896 123.751 212.207V212.185ZM133.02 267.978C131.476 267.25 129.836 266.743 128.149 266.472C129.452 267.577 130.907 268.49 132.469 269.181C134.014 269.91 135.654 270.417 137.34 270.688C136.034 269.594 134.579 268.69 133.02 268.001V267.978ZM136.395 328.988C134.847 328.26 133.203 327.753 131.513 327.482C134.162 329.662 137.334 331.115 140.715 331.698C139.409 330.604 137.954 329.7 136.395 329.011V328.988ZM68.5698 277.635C67.021 276.907 65.3774 276.4 63.6873 276.129C64.9922 277.237 66.4511 278.149 68.0185 278.838C69.5634 279.566 71.2032 280.073 72.8897 280.344C71.5829 279.251 70.1287 278.346 68.5698 277.658V277.635ZM159.75 250.137C159.839 251.282 160.054 252.413 160.392 253.51C160.583 253.038 160.785 252.543 160.977 252.037C160.617 251.381 160.207 250.753 159.75 250.16V250.137ZM157.028 315.228C157.603 316.831 158.402 318.345 159.402 319.725C159.267 318.023 158.888 316.35 158.277 314.756C157.698 313.152 156.895 311.638 155.892 310.259C156.036 311.968 156.418 313.648 157.028 315.251V315.228ZM84.3646 220.897C84.935 222.502 85.7345 224.017 86.7384 225.394C86.6012 223.693 86.2224 222.02 85.6134 220.425C85.0297 218.823 84.2271 217.31 83.2284 215.928C83.3644 217.638 83.7471 219.319 84.3646 220.92V220.897ZM106.628 278.568C107.203 280.171 108.003 281.685 109.002 283.065C108.873 281.363 108.494 279.688 107.877 278.096C107.307 276.491 106.507 274.976 105.503 273.599C105.638 275.308 106.017 276.989 106.628 278.591V278.568ZM46.1599 302.098C46.7341 303.701 47.5334 305.215 48.5337 306.594C48.3975 304.889 48.0187 303.212 47.4087 301.614C46.825 300.013 46.0224 298.499 45.0237 297.117C45.1608 298.823 45.5435 300.501 46.1599 302.098ZM132.514 299.512C134.12 298.936 135.635 298.133 137.014 297.129C135.311 297.258 133.635 297.637 132.042 298.253C130.435 298.823 128.92 299.622 127.542 300.625C129.244 300.491 130.918 300.117 132.514 299.512ZM51.2336 255.073C51.0536 255.601 50.8624 256.118 50.6824 256.646L51.4137 256.399C53.0225 255.83 54.5388 255.027 55.9136 254.016C54.312 254.148 52.7367 254.504 51.2336 255.073ZM151.538 209.577C150.695 209.987 149.892 210.476 149.142 211.038C150.155 210.975 151.159 210.802 152.134 210.521C151.932 210.206 151.729 209.891 151.538 209.577ZM85.0846 299.512C86.6874 298.929 88.2018 298.127 89.5846 297.129C87.8809 297.258 86.2055 297.637 84.6121 298.253C83.0073 298.827 81.4922 299.625 80.1122 300.625C81.8141 300.491 83.4883 300.117 85.0846 299.512ZM31.6026 324.851C30.8488 325.144 30.1063 325.447 29.3526 325.807C29.2476 326.212 29.1463 326.586 29.0488 326.931C30.0612 326.711 31.0573 326.422 32.0301 326.065C33.6349 325.492 35.15 324.693 36.53 323.693C34.8407 323.843 33.1815 324.233 31.6026 324.851ZM108.102 236.928C109.705 236.345 111.219 235.543 112.602 234.545C110.898 234.674 109.223 235.053 107.629 235.669C106.025 236.243 104.51 237.041 103.129 238.041C104.827 237.902 106.497 237.527 108.091 236.928H108.102Z" fill="white"/>
<path d="M135.866 255.579C129.892 256.161 123.97 257.187 118.148 258.648C115.268 259.412 112.444 260.3 109.62 261.256C108.214 261.739 106.797 262.166 105.368 262.582C103.893 263.071 102.362 263.373 100.812 263.482C100.789 263.489 100.77 263.503 100.756 263.522C100.742 263.542 100.734 263.565 100.734 263.588C100.734 263.612 100.742 263.635 100.756 263.654C100.77 263.673 100.789 263.688 100.812 263.695C102.279 263.759 103.749 263.721 105.21 263.583C106.626 263.395 108.027 263.118 109.407 262.751C112.332 262.009 115.223 261.121 118.148 260.345C124.054 258.771 129.949 257.209 135.945 256.062C136.215 256.017 136.148 255.545 135.866 255.579Z" fill="#263238"/>
<path d="M150.671 260.727C145.746 260.261 140.8 260.069 135.855 260.154C133.368 260.154 130.916 260.401 128.452 260.66C127.327 260.783 126.101 260.93 124.931 261.087C123.761 261.244 122.377 261.604 121.083 261.762C120.948 261.762 120.96 261.998 121.083 261.975C122.298 261.863 123.547 261.975 124.773 261.919L128.475 261.784C130.938 261.705 133.402 261.649 135.877 261.548C140.816 261.334 145.732 261.177 150.671 261.143C150.952 261.132 150.929 260.761 150.671 260.727Z" fill="#263238"/>
<path d="M82.9907 182.899C60.7497 206.699 10.9913 292.216 28.1024 308.685C45.2135 325.155 152.751 325.469 171.91 325.469C180.629 325.469 162.764 268.136 153.415 267.011C145.63 266.056 89.0319 264.223 87.8844 261.93C86.5794 259.344 93.9706 238.479 100.507 203.236C107.516 165.452 92.7781 172.388 82.9907 182.899Z" fill="#F7A9A0"/>
<path d="M184.441 255.207C203.769 252.509 209.191 254.792 224.255 243.864C234.166 236.692 242.997 239.941 237.35 251.329C228.091 269.968 203.881 278.669 194.6 279.276L184.441 255.207Z" fill="#F7A9A0"/>
<path d="M133.098 273.802C133.098 273.802 154.821 261.75 175.127 256.838C189.178 253.465 222.028 248.125 250.592 280.446C259.592 290.631 260.075 305.032 246.272 296.432C235.551 289.754 229.779 283.087 222.579 281.075C222.579 281.075 226.528 301.547 218.889 308.393C212.213 314.376 205.119 319.876 197.661 324.851C196.433 323.696 195.283 322.46 194.218 321.153C194.218 321.153 186.478 326.875 171.91 325.492L133.098 273.802Z" fill="#F7A9A0"/>
<path d="M189.056 255.747C195.806 259.243 209.879 266.899 219.251 277.174C229.645 288.585 246.599 313.373 238.094 320.961C231.85 326.515 224.594 317.589 224.594 317.589C224.594 317.589 229.443 329.314 222.704 333.103C216.562 336.554 211.331 329.337 211.331 329.337C211.331 329.337 213.041 336.959 206.493 339.151C198.618 341.782 196.301 325.391 186.007 321.164C183.656 320.242 189.056 255.747 189.056 255.747Z" fill="#F7A9A0"/>
<path d="M205.031 286.303C210.813 290.631 221.411 303.818 224.336 317.477C224.403 317.791 224.212 318.005 224.088 317.735C219.006 306.556 212.585 296.035 204.964 286.404C204.874 286.336 204.975 286.246 205.031 286.303Z" fill="#263238"/>
<path d="M194.128 296.982C198.718 301.232 209.035 315.307 211.532 329.258C211.588 329.562 211.375 329.764 211.262 329.494C206.767 318.065 200.985 307.184 194.027 297.061C193.96 296.983 194.027 296.915 194.128 296.982Z" fill="#263238"/>
<path d="M176.186 325.683C178.476 325.655 180.761 325.475 183.026 325.143C185.294 324.876 187.509 324.27 189.596 323.345H189.652C191.882 325.384 193.898 327.644 195.671 330.09C196.563 331.318 197.375 332.602 198.101 333.935C198.782 335.258 199.679 336.459 200.756 337.487C201.821 338.498 203.205 339.106 204.671 339.207C206.134 339.225 207.546 338.672 208.608 337.667C209.636 336.63 210.333 335.311 210.611 333.878C210.929 332.436 211.035 330.956 210.926 329.483L210.858 328.516L211.466 329.269C212.929 331.232 214.965 332.693 217.293 333.451C218.454 333.76 219.676 333.76 220.837 333.451C221.995 333.159 223.047 332.547 223.875 331.686C225.45 329.888 225.708 327.257 225.551 324.851C225.359 322.392 224.84 319.968 224.01 317.645L223.346 315.723L224.64 317.297C226.179 319.264 228.192 320.811 230.49 321.793C231.622 322.255 232.851 322.428 234.067 322.299C235.269 322.134 236.41 321.67 237.386 320.95C238.332 320.204 239.031 319.189 239.388 318.039C239.74 316.858 239.884 315.626 239.816 314.396C239.657 311.887 239.123 309.416 238.229 307.066C236.42 302.32 234.076 297.794 231.243 293.576C228.452 289.32 225.417 285.229 222.153 281.322L221.141 280.12L222.705 280.592C224.463 281.176 226.153 281.949 227.745 282.896C229.32 283.803 230.853 284.777 232.346 285.819C235.338 287.876 238.117 290.215 240.997 292.339C243.794 294.555 246.836 296.441 250.064 297.96C251.639 298.59 253.439 299.085 254.812 298.275C256.184 297.466 256.601 295.69 256.488 294.003C256.363 292.263 255.956 290.555 255.284 288.944C254.569 287.329 253.695 285.789 252.674 284.346C250.595 281.433 248.253 278.716 245.677 276.23C243.111 273.723 240.403 271.365 237.566 269.17C234.747 266.955 231.774 264.945 228.667 263.155L228.172 262.874L228.577 262.47C231.859 259.329 234.64 255.705 236.823 251.722C237.905 249.765 238.492 247.573 238.533 245.337C238.535 244.252 238.252 243.186 237.712 242.245C237.44 241.794 237.082 241.4 236.657 241.087C236.232 240.775 235.749 240.549 235.237 240.424C233.038 240.096 230.793 240.524 228.87 241.638C226.84 242.66 224.865 243.786 222.952 245.011C219.138 247.462 215.403 250.328 210.926 251.756C208.718 252.396 206.46 252.851 204.176 253.116C201.926 253.431 199.62 253.701 197.347 253.982C192.847 254.533 188.257 255.106 183.735 255.848C174.663 257.176 165.759 259.467 157.174 262.683C165.729 259.358 174.614 256.954 183.679 255.511C188.179 254.724 192.735 254.083 197.28 253.476L204.03 252.543C206.293 252.281 208.529 251.822 210.712 251.172C215.055 249.8 218.711 246.967 222.558 244.426C224.493 243.179 226.462 241.998 228.521 240.941C230.605 239.728 233.045 239.271 235.428 239.649C236.644 239.953 237.694 240.719 238.353 241.785C238.963 242.837 239.285 244.031 239.287 245.247C239.265 247.607 238.658 249.924 237.521 251.992C235.32 256.07 232.501 259.783 229.162 262.998L229.083 262.324C232.223 264.12 235.231 266.137 238.083 268.36C240.958 270.57 243.704 272.942 246.307 275.465C248.942 277.977 251.337 280.728 253.462 283.683C254.529 285.178 255.445 286.774 256.196 288.45C256.921 290.17 257.361 291.996 257.501 293.857C257.576 294.828 257.465 295.805 257.174 296.735C256.866 297.726 256.206 298.569 255.318 299.107C254.422 299.605 253.383 299.788 252.371 299.624C251.427 299.505 250.504 299.259 249.626 298.894C246.296 297.376 243.164 295.458 240.299 293.183C237.386 291.002 234.674 288.686 231.704 286.64C230.242 285.617 228.735 284.639 227.205 283.751C225.706 282.829 224.11 282.075 222.446 281.502L222.952 280.693C226.219 284.638 229.258 288.767 232.053 293.059C234.904 297.345 237.255 301.943 239.062 306.763C239.975 309.198 240.517 311.756 240.671 314.351C240.734 315.677 240.571 317.004 240.187 318.275C239.786 319.574 239.002 320.722 237.937 321.568C236.847 322.375 235.569 322.889 234.224 323.064C232.886 323.195 231.535 323.002 230.287 322.502C227.867 321.456 225.75 319.817 224.133 317.735L224.763 317.386C225.605 319.777 226.127 322.268 226.316 324.795C226.409 326.073 226.333 327.358 226.091 328.617C225.855 329.909 225.28 331.116 224.426 332.113C223.502 333.05 222.343 333.722 221.071 334.058C219.798 334.394 218.459 334.383 217.192 334.025C214.737 333.216 212.591 331.669 211.05 329.595L211.59 329.382C211.695 330.924 211.574 332.473 211.23 333.98C210.917 335.532 210.131 336.95 208.98 338.038C207.814 339.117 206.27 339.694 204.682 339.646C203.109 339.524 201.628 338.856 200.497 337.757C199.404 336.684 198.496 335.438 197.809 334.069C197.105 332.744 196.32 331.464 195.457 330.236C193.726 327.773 191.751 325.491 189.562 323.423H189.652C187.539 324.328 185.301 324.912 183.015 325.155C180.752 325.476 178.471 325.652 176.186 325.683Z" fill="#263238"/>
<path d="M48.127 224.562L94.4428 241.234C94.4428 241.234 105.4 208.632 106.154 187.947C106.908 167.262 94.6003 169.353 80.6504 183.956C66.7006 198.559 48.127 224.562 48.127 224.562Z" fill="#FF725E"/>
<path d="M106.12 188.161C105.85 189.851 105.339 191.494 104.601 193.04C103.914 194.603 103 196.058 101.89 197.357C102.158 195.669 102.67 194.029 103.409 192.489C104.101 190.924 105.014 189.466 106.12 188.161ZM55.2031 227.114L56.4294 227.552C57.1076 226.1 57.5772 224.56 57.8244 222.977C56.7529 224.22 55.8698 225.614 55.2031 227.114ZM84.3629 220.92C84.9332 222.525 85.7328 224.04 86.7366 225.416C86.5994 223.715 86.2206 222.042 85.6116 220.447C85.028 218.846 84.2254 217.333 83.2267 215.951C83.3648 217.653 83.7475 219.326 84.3629 220.92ZM70.458 197.75C69.4527 198.126 68.4752 198.573 67.533 199.088L66.7793 200.032C68.1984 199.837 69.5909 199.482 70.9305 198.975C72.5394 198.406 74.0556 197.603 75.4305 196.592C73.7263 196.74 72.052 197.13 70.458 197.75Z" fill="white"/>
<path d="M95.0286 232.038C88.0199 229.025 68.7488 221.437 55.5527 218.222C55.4739 218.222 55.3614 218.503 55.4289 218.536C65.9701 222.943 87.6036 230.138 94.8036 232.499C95.0286 232.544 95.2086 232.094 95.0286 232.038Z" fill="#263238"/>
<path d="M104.029 214.501C104.029 214.433 103.95 214.399 103.917 214.501C103.084 216.097 102.342 217.716 101.667 219.368C102.477 215.748 103.2 212.121 103.838 208.486C103.838 208.459 103.827 208.434 103.808 208.415C103.789 208.396 103.764 208.385 103.737 208.385C103.71 208.385 103.684 208.396 103.665 208.415C103.646 208.434 103.635 208.459 103.635 208.486C100.53 219.155 97.1555 229.778 94.2755 240.514C93.0943 240.458 91.9018 240.379 90.7318 240.222C90.6943 240.22 90.6573 240.231 90.6273 240.253C90.5973 240.276 90.5763 240.308 90.5682 240.345C90.5601 240.382 90.5653 240.42 90.5829 240.453C90.6005 240.486 90.6294 240.512 90.6643 240.526C91.9468 240.84 93.2068 241.245 94.4555 241.65C94.5977 241.717 94.7604 241.726 94.9093 241.676C95.0583 241.626 95.1819 241.519 95.2542 241.38C97.5085 235.28 99.387 229.048 100.879 222.718C101.363 221.752 101.835 220.785 102.252 219.784C102.977 218.07 103.571 216.304 104.029 214.501Z" fill="#263238"/>
<path d="M106.582 174.445C106.807 176.952 116.133 194.344 127.293 195.412C130.927 195.76 133.683 176.008 133.683 176.008L134.223 174.592L141.716 154.828L119.925 135.998L116.752 133.469C116.752 133.469 115.054 139.011 113.017 145.936C112.916 146.251 112.815 146.577 112.725 146.914C112.635 147.251 112.466 147.678 112.376 148.038C112.05 149.072 111.735 150.129 111.431 151.186C111.206 151.984 110.981 152.76 110.767 153.614C110.554 154.469 110.329 155.289 110.092 156.144C107.977 164.553 106.515 173.321 106.582 174.445Z" fill="#F7A9A0"/>
<path d="M113.029 145.925C114.268 151.954 116.807 157.641 120.47 162.59C124.132 167.538 128.83 171.63 134.235 174.58L141.728 154.817L119.937 135.987L116.764 133.457C116.764 133.457 115.054 139 113.029 145.925Z" fill="#263238"/>
<path d="M174.217 126.173C172.304 163.271 149.883 166.261 141.896 165.834C134.64 165.452 109.98 163.237 108.045 126.184C106.11 89.1305 123.963 78.3158 140.602 78.3158C157.241 78.3158 176.129 89.1305 174.217 126.173Z" fill="#F7A9A0"/>
<path d="M169.279 119.506C168.445 119.316 167.622 119.08 166.815 118.798C165.913 118.668 165.079 118.245 164.441 117.595C164.282 117.351 164.208 117.062 164.228 116.772C164.248 116.482 164.363 116.207 164.554 115.987C165.006 115.617 165.548 115.373 166.125 115.28C166.702 115.188 167.293 115.249 167.839 115.459C169.003 115.724 170.028 116.408 170.719 117.381C170.867 117.611 170.945 117.88 170.942 118.153C170.939 118.427 170.856 118.693 170.702 118.92C170.548 119.146 170.332 119.323 170.079 119.427C169.825 119.531 169.547 119.559 169.279 119.506Z" fill="#263238"/>
<path d="M145.652 117.932C146.519 117.932 147.329 117.708 148.184 117.584C149.098 117.591 149.988 117.294 150.715 116.741C150.909 116.523 151.026 116.247 151.046 115.956C151.067 115.665 150.99 115.376 150.827 115.133C150.438 114.699 149.939 114.378 149.384 114.202C148.828 114.026 148.235 114.002 147.666 114.133C146.475 114.222 145.358 114.746 144.527 115.605C144.352 115.814 144.24 116.07 144.206 116.341C144.172 116.612 144.218 116.887 144.336 117.133C144.455 117.378 144.643 117.585 144.876 117.727C145.11 117.869 145.379 117.94 145.652 117.932Z" fill="#263238"/>
<path d="M149.377 127.095C149.377 126.993 149.163 127.207 149.163 127.308C149.163 129.838 148.646 132.715 146.317 133.446C146.238 133.446 146.238 133.592 146.317 133.581C149.129 133.334 149.737 129.478 149.377 127.095Z" fill="#263238"/>
<path d="M147.251 124.351C143.201 123.834 142.481 131.951 146.227 132.434C149.974 132.918 150.637 124.779 147.251 124.351Z" fill="#263238"/>
<path d="M145.652 124.632C144.899 125.026 144.134 125.757 143.267 125.757C142.401 125.757 141.591 124.846 141.017 123.969C141.017 123.879 140.882 123.969 140.871 124.048C140.714 125.599 141.164 127.252 142.817 127.634C144.471 128.016 145.54 126.701 146.069 125.172C146.136 124.981 145.922 124.475 145.652 124.632Z" fill="#263238"/>
<path d="M163.18 127.791C163.18 127.702 163.36 127.926 163.349 128.039C163.022 130.535 163.067 133.469 165.272 134.525C165.34 134.525 165.272 134.683 165.272 134.66C162.527 133.975 162.527 130.119 163.18 127.791Z" fill="#263238"/>
<path d="M165.677 125.386C169.749 125.476 169.277 133.615 165.508 133.536C161.739 133.457 162.257 125.318 165.677 125.386Z" fill="#263238"/>
<path d="M167.344 126.015C167.963 126.487 168.559 127.308 169.324 127.409C170.089 127.51 170.921 126.679 171.574 125.858C171.641 125.779 171.698 125.858 171.698 125.959C171.641 127.51 171.034 129.107 169.526 129.332C168.019 129.556 167.22 128.129 166.939 126.555C166.849 126.251 167.096 125.835 167.344 126.015Z" fill="#263238"/>
<path d="M147.499 146.487C148.016 147.15 148.511 148.038 149.411 148.24C150.343 148.348 151.286 148.256 152.179 147.971C152.198 147.961 152.22 147.959 152.241 147.965C152.262 147.97 152.28 147.983 152.292 148C152.304 148.018 152.31 148.039 152.308 148.061C152.306 148.082 152.296 148.102 152.28 148.117C151.856 148.564 151.317 148.886 150.722 149.049C150.127 149.211 149.498 149.208 148.905 149.039C148.411 148.84 147.988 148.498 147.69 148.058C147.391 147.617 147.231 147.098 147.229 146.565C147.218 146.408 147.42 146.341 147.499 146.487Z" fill="#263238"/>
<path d="M158.241 139.416C158.241 139.416 158.466 143.215 158.331 145.037C158.331 145.194 151.739 146.026 149.252 141.439C149.223 141.402 149.209 141.354 149.214 141.307C149.219 141.259 149.243 141.216 149.28 141.186C149.318 141.156 149.365 141.143 149.413 141.148C149.46 141.153 149.504 141.177 149.534 141.214C151.679 142.936 154.322 143.922 157.071 144.025C157.229 143.541 156.464 137.527 156.745 137.527C158.114 137.754 159.447 138.166 160.705 138.752C160.457 130.816 158.95 123.014 158.826 115.088C158.831 115.034 158.854 114.982 158.891 114.942C158.928 114.902 158.978 114.875 159.032 114.866C159.086 114.857 159.141 114.866 159.19 114.892C159.238 114.918 159.276 114.959 159.299 115.009C161.459 123.104 161.942 132.221 162.404 140.405C162.527 141.383 158.927 139.764 158.241 139.416Z" fill="#263238"/>
<path d="M108.461 125.386C111.006 124.843 113.366 123.648 115.311 121.92C117.255 120.192 118.717 117.989 119.554 115.527C151.324 114.751 161.831 95.055 161.831 95.055C167.928 111.637 173.373 114.481 174.262 116.977C174.262 116.977 176.906 102.598 172.102 91.6374C167.85 81.9357 156.937 71.5481 139.77 73.7515C130.039 74.9994 121.849 83.4196 121.849 83.4196C121.849 83.4196 111.33 84.5438 107.021 92.9977C99.799 107.208 108.461 125.386 108.461 125.386Z" fill="#263238"/>
<path d="M162.315 93.7959C161.158 97.9306 158.985 101.71 155.992 104.79C152.999 107.889 149.43 110.374 145.485 112.109L142.47 113.233C141.446 113.582 140.4 113.795 139.365 114.076C137.294 114.618 135.184 114.994 133.054 115.201C130.927 115.392 128.79 115.358 126.664 115.437C124.549 115.245 122.434 115.099 120.33 114.875C122.456 114.807 124.56 114.875 126.664 114.807C128.756 114.593 130.86 114.515 132.93 114.222C137.072 113.673 141.12 112.569 144.967 110.94C148.797 109.314 152.294 106.997 155.284 104.105C158.33 101.203 160.726 97.6899 162.315 93.7959Z" fill="#263238"/>
<path d="M141.086 139.281C138.927 138.822 136.94 137.767 135.351 136.236C133.762 134.705 132.636 132.759 132.099 130.619C131.563 128.48 131.639 126.232 132.317 124.134C132.996 122.035 134.251 120.169 135.939 118.747C137.627 117.326 139.68 116.406 141.865 116.094C144.05 115.781 146.279 116.088 148.298 116.979C150.317 117.869 152.046 119.309 153.286 121.133C154.527 122.957 155.231 125.093 155.317 127.297C155.436 130.418 154.311 133.458 152.189 135.751C150.067 138.044 147.122 139.402 144 139.528C143.022 139.56 142.044 139.477 141.086 139.281ZM145.653 117.775C144.821 117.602 143.971 117.53 143.122 117.561C140.531 117.667 138.078 118.755 136.262 120.604C134.446 122.454 133.403 124.926 133.347 127.516C133.29 130.107 134.224 132.622 135.958 134.548C137.692 136.475 140.095 137.669 142.679 137.887C145.263 138.105 147.833 137.331 149.865 135.722C151.898 134.113 153.241 131.79 153.62 129.227C153.999 126.664 153.386 124.052 151.906 121.925C150.426 119.797 148.19 118.313 145.653 117.775Z" fill="#455A64"/>
<path d="M168.029 141.653C163.619 140.708 160.582 135.346 161.155 129.23C161.374 126.3 162.507 123.512 164.395 121.26C165.144 120.242 166.143 119.434 167.295 118.915C168.447 118.395 169.714 118.182 170.973 118.295C172.232 118.408 173.441 118.843 174.482 119.56C175.523 120.276 176.362 121.249 176.917 122.384C178.356 124.946 178.954 127.896 178.627 130.816C178.019 137.28 173.609 142.181 168.794 141.731C168.535 141.743 168.277 141.709 168.029 141.653ZM171.404 119.978C171.212 119.931 171.016 119.901 170.819 119.888C169.813 119.838 168.809 120.03 167.893 120.449C166.976 120.867 166.174 121.5 165.554 122.294C163.887 124.3 162.888 126.776 162.697 129.377C162.168 134.998 164.947 139.832 168.918 140.203C172.889 140.574 176.512 136.313 177.029 130.714C177.324 128.124 176.801 125.506 175.533 123.227C175.112 122.43 174.529 121.73 173.822 121.171C173.115 120.611 172.299 120.205 171.427 119.978H171.404Z" fill="#455A64"/>
<path d="M154.8 128.612L153.9 127.319C155.824 125.993 160.122 124.374 162.709 127.702L161.46 128.668C159.154 125.678 154.98 128.5 154.8 128.612Z" fill="#455A64"/>
<path d="M102.228 126.746L100.9 125.892C101.294 125.273 104.883 119.843 108.438 119.607C111.813 119.394 132.603 123.328 133.491 123.497L133.199 125.037C127.225 123.913 111.104 121.001 108.539 121.181C106.199 121.339 103.184 125.251 102.228 126.746Z" fill="#455A64"/>
<path d="M114.064 126.577C114.064 126.577 107.629 113.998 102.026 116.134C96.4238 118.27 100.147 135.728 105.941 138.853C106.657 139.305 107.457 139.608 108.293 139.743C109.129 139.878 109.984 139.842 110.806 139.639C111.627 139.435 112.4 139.067 113.075 138.557C113.751 138.048 114.317 137.406 114.739 136.673L114.064 126.577Z" fill="#F7A9A0"/>
<path d="M103.219 121.114C103.118 121.114 103.084 121.226 103.163 121.271C107.213 123.598 108.911 127.881 109.913 132.221C108.855 130.456 107.246 129.354 104.906 130.568C104.882 130.584 104.863 130.608 104.854 130.636C104.844 130.664 104.843 130.694 104.852 130.722C104.861 130.75 104.879 130.774 104.903 130.791C104.927 130.808 104.956 130.816 104.985 130.816C105.773 130.68 106.584 130.791 107.305 131.136C108.027 131.48 108.623 132.04 109.013 132.738C109.655 133.905 110.172 135.138 110.554 136.414C110.7 136.83 111.42 136.718 111.341 136.257C111.336 136.223 111.336 136.189 111.341 136.155C112.196 130.703 109.013 122.474 103.219 121.114Z" fill="#263238"/>
<path d="M262.248 331.551C258.596 331.211 254.968 330.659 251.38 329.899C247.777 329.193 244.22 328.273 240.727 327.145C248.032 327.874 255.244 329.35 262.248 331.551Z" fill="#263238"/>
<path d="M293.544 321.962C293.106 317.656 293.004 313.351 292.982 309.045C292.95 304.729 293.138 300.414 293.544 296.117C293.951 300.414 294.139 304.729 294.107 309.045C294.084 313.351 293.983 317.656 293.544 321.962Z" fill="#263238"/>
<path d="M282.553 322.142C280.111 318.889 277.839 315.512 275.747 312.024C273.612 308.555 271.663 304.975 269.908 301.299C274.762 307.851 278.995 314.84 282.553 322.176V322.142Z" fill="#263238"/>
<path d="M243.133 302.266C245.63 304.189 248.049 306.201 250.457 308.224C252.864 310.248 255.215 312.317 257.566 314.408C259.918 316.499 262.235 318.612 264.508 320.782L267.883 324.031C269.008 325.155 270.133 326.279 271.258 327.403C270.009 326.448 268.794 325.447 267.568 324.469L263.945 321.445C261.538 319.433 259.186 317.353 256.835 315.262C254.484 313.171 252.166 311.057 249.894 308.888C247.622 306.718 245.327 304.537 243.133 302.266Z" fill="#263238"/>
<path d="M313.975 329.584C317.466 328.462 321.019 327.543 324.617 326.83C328.207 326.064 331.84 325.512 335.496 325.177C328.491 327.375 321.28 328.852 313.975 329.584Z" fill="#263238"/>
<path d="M331.277 300.063C329.095 302.311 326.777 304.503 324.527 306.662C322.277 308.82 319.915 310.934 317.586 313.036C315.257 315.138 312.884 317.207 310.465 319.219L306.854 322.243C305.616 323.221 304.412 324.222 303.152 325.177C304.277 324.053 305.402 322.929 306.527 321.805L309.902 318.556C312.152 316.386 314.515 314.284 316.843 312.182C319.172 310.079 321.546 308.011 323.965 305.999C326.383 303.986 328.791 301.985 331.277 300.063Z" fill="#263238"/>
<path d="M433.572 320.681L436.767 320.253L431.592 195.412L394.478 143.171L391.711 145.441L428.622 197.447L433.572 320.681Z" fill="#263238"/>
<path d="M434.641 196.435C434.641 197.324 434.377 198.194 433.882 198.933C433.388 199.673 432.685 200.249 431.863 200.589C431.04 200.93 430.136 201.019 429.263 200.845C428.39 200.672 427.588 200.243 426.959 199.614C426.329 198.986 425.901 198.184 425.727 197.312C425.553 196.44 425.643 195.536 425.983 194.714C426.324 193.892 426.901 193.19 427.641 192.696C428.381 192.202 429.251 191.938 430.141 191.938C431.334 191.938 432.479 192.412 433.323 193.255C434.166 194.098 434.641 195.242 434.641 196.435Z" fill="#FF725E"/>
<path d="M398 144.767C398 145.656 397.736 146.526 397.242 147.265C396.747 148.005 396.044 148.581 395.222 148.921C394.4 149.262 393.495 149.351 392.622 149.177C391.749 149.004 390.947 148.575 390.318 147.947C389.689 147.318 389.26 146.516 389.086 145.644C388.913 144.772 389.002 143.868 389.343 143.046C389.683 142.224 390.26 141.522 391 141.028C391.74 140.534 392.61 140.27 393.5 140.27C394.693 140.27 395.838 140.744 396.682 141.587C397.526 142.431 398 143.574 398 144.767Z" fill="#FF725E"/>
<path d="M362.652 146.532L380.146 173.254L391.711 162.72L398.753 156.301L385.625 136.291L376.917 140.169L362.652 146.532Z" fill="#FF725E"/>
<path opacity="0.1" d="M362.652 146.532L380.146 173.254L391.711 162.72L376.917 140.169L362.652 146.532Z" fill="black"/>
<path d="M330.32 153.491L360.841 200.077L389.99 172.669L367.119 137.752L330.32 153.491Z" fill="#FF725E"/>
<path d="M405.977 331.563H461L457.614 314.295H409.352L405.977 331.563Z" fill="#FF725E"/>
<path d="M226.473 37.9461C225.817 44.2178 223.431 50.1841 219.579 55.1792C215.728 60.1743 210.563 64.0018 204.662 66.2346C198.76 68.4674 192.354 69.0176 186.158 67.8239C179.961 66.6302 174.219 63.7395 169.571 59.4744L152.527 62.0263L161.055 47.2994C158.926 42.1184 158.122 36.4892 158.715 30.9199C159.152 26.4514 160.469 22.1133 162.591 18.1557C164.712 14.198 167.596 10.6988 171.077 7.85963C174.558 5.02047 178.566 2.89744 182.871 1.61277C187.176 0.328105 191.693 -0.0927993 196.162 0.374282C200.63 0.841364 204.963 2.18721 208.908 4.33432C212.854 6.48143 216.336 9.38737 219.154 12.8848C221.971 16.3823 224.068 20.4021 225.324 24.7129C226.581 29.0237 226.971 33.5402 226.473 38.0023V37.9461Z" fill="white"/>
<path d="M226.473 37.9461C225.816 44.2177 223.437 50.1858 219.599 55.1912C217.724 57.7208 215.47 59.9466 212.917 61.7902C207.856 65.5972 201.841 67.9316 195.536 68.5354C193.961 68.6721 192.379 68.7021 190.8 68.6253C189.217 68.5892 187.641 68.4238 186.086 68.1307C179.796 66.9864 173.952 64.109 169.211 59.8229L169.616 59.9466L152.595 62.5547L151.357 62.7458L151.976 61.6216L160.459 46.8722V47.4568C158.458 42.5746 157.608 37.2983 157.972 32.0353C158.337 26.7724 159.908 21.6636 162.562 17.1036C165.215 12.5634 168.861 8.68174 173.227 5.74925C178.659 2.14099 185.004 0.149902 191.525 0.00813615C198.046 -0.13363 204.472 1.57977 210.055 4.94856C215.639 8.31735 220.149 13.2027 223.059 19.0351C225.97 24.8675 227.162 31.4066 226.496 37.8899L226.473 37.9461ZM226.473 37.9461C227.007 32.8227 226.36 27.6452 224.58 22.8107C222.801 17.9762 219.937 13.6132 216.208 10.0564C212.48 6.49968 207.985 3.84372 203.07 2.29227C198.155 0.740825 192.949 0.335135 187.852 1.10633C182.798 1.85847 177.983 3.75829 173.778 6.65985C169.614 9.57859 166.136 13.3688 163.586 17.7669C161.08 22.1812 159.603 27.1038 159.266 32.1678C158.951 37.2271 159.77 42.2928 161.662 46.9959L161.786 47.2994L161.629 47.5804L153.045 62.2737L152.437 61.3743L169.492 58.991H169.729L169.897 59.1484C174.447 63.4075 180.097 66.3121 186.21 67.5349C187.732 67.8513 189.279 68.0393 190.833 68.097C192.384 68.2094 193.94 68.2094 195.491 68.097C198.603 67.8537 201.665 67.1803 204.592 66.0959C207.532 65.0301 210.299 63.5377 212.804 61.6666C214.065 60.741 215.267 59.7386 216.404 58.665C217.509 57.5589 218.543 56.3836 219.498 55.1463C223.369 50.167 225.783 44.2134 226.473 37.9461Z" fill="#263238"/>
<path d="M211.589 35.4392C211.589 36.2552 211.347 37.0529 210.894 37.7313C210.44 38.4098 209.795 38.9386 209.041 39.2509C208.286 39.5632 207.456 39.6449 206.655 39.4857C205.854 39.3265 205.119 38.9335 204.541 38.3565C203.964 37.7795 203.571 37.0444 203.411 36.2441C203.252 35.4437 203.334 34.6142 203.646 33.8603C203.959 33.1064 204.488 32.462 205.167 32.0087C205.846 31.5554 206.644 31.3134 207.461 31.3134C208.003 31.3119 208.541 31.4176 209.042 31.6244C209.544 31.8312 210 32.1351 210.384 32.5185C210.767 32.9019 211.071 33.3573 211.278 33.8585C211.485 34.3598 211.591 34.897 211.589 35.4392Z" fill="#263238"/>
<path d="M196.808 35.4392C196.808 36.2557 196.566 37.0538 196.112 37.7325C195.657 38.4112 195.012 38.94 194.257 39.252C193.502 39.5639 192.671 39.6449 191.87 39.4848C191.069 39.3247 190.333 38.9307 189.756 38.3525C189.179 37.7744 188.787 37.0382 188.629 36.2372C188.471 35.4361 188.554 34.6062 188.868 33.8525C189.183 33.0988 189.713 32.4552 190.394 32.0032C191.074 31.5512 191.874 31.3111 192.691 31.3134C193.232 31.3134 193.769 31.4202 194.269 31.6276C194.769 31.8351 195.224 32.1392 195.606 32.5225C195.989 32.9057 196.292 33.3606 196.498 33.8611C196.704 34.3616 196.81 34.8979 196.808 35.4392Z" fill="#263238"/>
<path d="M182.037 35.4392C182.037 36.2552 181.795 37.0529 181.341 37.7313C180.887 38.4098 180.242 38.9386 179.488 39.2509C178.734 39.5632 177.903 39.6449 177.103 39.4857C176.302 39.3265 175.566 38.9335 174.989 38.3565C174.411 37.7795 174.018 37.0444 173.859 36.2441C173.699 35.4437 173.781 34.6142 174.094 33.8603C174.406 33.1064 174.935 32.462 175.614 32.0087C176.293 31.5554 177.091 31.3134 177.908 31.3134C178.451 31.3119 178.988 31.4176 179.49 31.6244C179.991 31.8312 180.447 32.1351 180.831 32.5185C181.214 32.9019 181.519 33.3573 181.725 33.8585C181.932 34.3598 182.038 34.897 182.037 35.4392Z" fill="#263238"/>
<path d="M283.757 83.7233H192.025V134.278H283.757V83.7233Z" fill="#455A64"/>
<path d="M266.072 134.278H283.757V147.06L266.072 134.278Z" fill="#455A64"/>
<path d="M244.776 93.0541H203.186V94.1895H244.776V93.0541Z" fill="white"/>
<path d="M273.036 99.2034H203.186V100.339H273.036V99.2034Z" fill="white"/>
<path d="M273.036 105.353H203.186V106.488H273.036V105.353Z" fill="white"/>
<path d="M259.649 111.502H203.186V112.638H259.649V111.502Z" fill="white"/>
<path d="M273.036 117.651H203.186V118.787H273.036V117.651Z" fill="white"/>
<path d="M228.88 123.801H203.186V124.936H228.88V123.801Z" fill="white"/>
<path d="M314.447 152.67H223.334V190.173H314.447V152.67Z" fill="#FF725E"/>
<path d="M314.447 202.213V190.162H296.154L314.447 202.213Z" fill="#FF725E"/>
<path d="M303.502 162.001H234.416V163.136H303.502V162.001Z" fill="white"/>
<path d="M273.836 168.15H234.416V169.286H273.836V168.15Z" fill="white"/>
<path d="M287.696 174.299H234.416V175.435H287.696V174.299Z" fill="white"/>
<path d="M252.978 180.449H234.416V181.584H252.978V180.449Z" fill="white"/>
<path d="M249.142 335.835H239.996V341.804H249.142V335.835Z" fill="#EBEBEB"/>
<path d="M261 335.441H251.854V341.411H261V335.441Z" fill="#EBEBEB"/>
<path d="M272.867 335.048H263.721V341.017H272.867V335.048Z" fill="#EBEBEB"/>
<path d="M284.724 334.654H275.578V340.624H284.724V334.654Z" fill="#EBEBEB"/>
<path d="M296.593 334.261H287.447V340.23H296.593V334.261Z" fill="#EBEBEB"/>
<path d="M308.451 333.867H299.305V339.837H308.451V333.867Z" fill="#EBEBEB"/>
<path d="M320.308 333.474H311.162V339.443H320.308V333.474Z" fill="#EBEBEB"/>
<path d="M332.177 333.08H323.031V339.05H332.177V333.08Z" fill="#EBEBEB"/>
<path d="M344.035 332.687H334.889V338.656H344.035V332.687Z" fill="#EBEBEB"/>
<path d="M346.274 345.244H237.758V337.97L346.274 334.946V345.244Z" fill="#DBDBDB"/>
<path d="M427.205 320.096H276.006L300.047 207.609H451.246L427.205 320.096Z" fill="#EBEBEB"/>
<path d="M432.796 320.096H281.598L305.639 207.609H456.838L432.796 320.096Z" fill="#DBDBDB"/>
<path d="M378.806 263.648C382.908 259.86 383.608 253.95 380.37 250.448C377.131 246.946 371.181 247.178 367.078 250.966C362.976 254.754 362.276 260.664 365.514 264.166C368.753 267.668 374.703 267.436 378.806 263.648Z" fill="white"/>
<path d="M390.036 349.471H315.674V343.693L390.036 341.298V349.471Z" fill="#EBEBEB"/>
<path d="M410.252 349.46H370.326L346.273 286.426H386.199L410.252 349.46Z" fill="#EBEBEB"/>
<path d="M416.822 349.46H376.896L352.855 286.426H392.781L416.822 349.46Z" fill="#A6A6A6"/>
<path d="M227.778 351H151.155C144.619 351 154.08 332.383 177.964 325.245C201.847 318.106 235.361 344.019 227.778 351Z" fill="#DBDBDB"/>
<path d="M197.74 351C197.802 348.878 198.154 346.775 198.786 344.749C199.408 342.707 200.277 340.747 201.374 338.915C202.467 337.071 203.836 335.407 205.435 333.98C207.017 332.545 208.842 331.403 210.824 330.607C210.003 331.282 209.069 331.731 208.315 332.484L207.19 333.485L206.065 334.609C204.644 336.091 203.398 337.732 202.353 339.499C201.291 341.267 200.38 343.121 199.63 345.042C198.867 346.983 198.236 348.974 197.74 351Z" fill="#263238"/>
<path d="M206.83 333.283C209.1 334.015 211.311 334.916 213.445 335.981C215.592 337.041 217.653 338.266 219.61 339.646C221.595 341.016 223.392 342.642 224.954 344.48C225.72 345.422 226.384 346.443 226.934 347.526C227.46 348.613 227.762 349.794 227.822 351C227.553 349.857 227.089 348.77 226.45 347.785C225.83 346.802 225.11 345.887 224.301 345.053C222.662 343.393 220.873 341.888 218.957 340.556C217.056 339.185 215.043 337.959 213.029 336.745C212.016 336.138 210.993 335.554 209.946 334.991C208.9 334.429 207.876 333.856 206.83 333.283Z" fill="#263238"/>
</g>
</svg>
